<mxfile host="app.diagrams.net" modified="2023-08-13T03:51:25.369Z" agent="Mozilla/5.0 (Windows NT 10.0; Win64; x64) AppleWebKit/537.36 (KHTML, like Gecko) Chrome/113.0.0.0 Safari/537.36" version="21.6.8" etag="bxcNBQSyWOjVkbxvxUPW" type="github">
  <diagram name="第 1 页" id="BNl7izKUYkW7nkM7-au5">
    <mxGraphModel>
      <root>
        <mxCell id="0" />
        <mxCell id="1" parent="0" />
      </root>
    </mxGraphModel>
  </diagram>
</mxfile>
